<svg width="120" height="30" viewBox="0 0 120 30" fill="none" xmlns="http://www.w3.org/2000/svg">
<path d="M10.5192 16.8888C9.59872 16.5751 8.76195 16.2613 8.00886 15.9475C7.25576 15.6128 6.60727 15.2153 6.06337 14.7551C5.51946 14.2949 5.09062 13.751 4.77683 13.1234C4.48396 12.4749 4.33752 11.6904 4.33752 10.77C4.33752 8.99182 5.0174 7.56931 6.37715 6.50242C7.75783 5.43554 9.6824 4.9021 12.1509 4.9021C13.0504 4.9021 13.8872 4.96486 14.6612 5.09037C15.4352 5.21589 16.0942 5.41462 16.6381 5.68657C17.2029 5.9376 17.6422 6.27231 17.956 6.6907C18.2698 7.08816 18.4267 7.55885 18.4267 8.10275C18.4267 8.64665 18.3011 9.11734 18.0501 9.5148C17.7991 9.89135 17.4958 10.2156 17.1401 10.4875C16.6799 10.1947 16.0628 9.94365 15.2888 9.73445C14.5148 9.50434 13.6675 9.38929 12.7471 9.38929C11.8057 9.38929 11.1154 9.52526 10.6761 9.79721C10.2368 10.0482 10.0171 10.3725 10.0171 10.77C10.0171 11.0837 10.1531 11.3452 10.425 11.5544C10.697 11.7427 11.1049 11.9205 11.6488 12.0879L13.3119 12.6213C15.2783 13.2489 16.7845 14.0543 17.8305 15.0375C18.8973 15.9998 19.4308 17.3177 19.4308 18.9912C19.4308 20.7694 18.73 22.2128 17.3284 23.3215C15.9268 24.4093 13.8663 24.9532 11.1467 24.9532C10.1845 24.9532 9.28493 24.8696 8.44816 24.7022C7.63231 24.5558 6.9106 24.3361 6.28302 24.0432C5.67636 23.7295 5.19521 23.3529 4.83959 22.9136C4.50488 22.4534 4.33752 21.9304 4.33752 21.3447C4.33752 20.738 4.51534 20.2255 4.87097 19.8071C5.22659 19.3678 5.6136 19.0331 6.03199 18.803C6.61773 19.2632 7.32898 19.6607 8.16575 19.9954C9.02344 20.3301 9.95435 20.4974 10.9585 20.4974C11.9835 20.4974 12.7052 20.3405 13.1236 20.0267C13.542 19.713 13.7512 19.3469 13.7512 18.9285C13.7512 18.5101 13.5838 18.1963 13.2491 17.9871C12.9144 17.757 12.4437 17.5373 11.8371 17.3282L10.5192 16.8888Z" fill="url(#paint0_linear_905_229)"/>
<path d="M25.9507 24.5453C25.0512 24.5453 24.3399 24.2838 23.817 23.7608C23.294 23.2379 23.0325 22.5266 23.0325 21.6271V5.40416C23.2626 5.36232 23.6287 5.31003 24.1308 5.24727C24.6328 5.16359 25.114 5.12175 25.5742 5.12175C26.0553 5.12175 26.4737 5.16359 26.8293 5.24727C27.2059 5.31003 27.5197 5.43554 27.7707 5.62382C28.0217 5.81209 28.21 6.07358 28.3355 6.40829C28.461 6.743 28.5238 7.1823 28.5238 7.7262V20.1209H35.7096C35.856 20.351 35.992 20.6648 36.1175 21.0622C36.243 21.4388 36.3058 21.8363 36.3058 22.2546C36.3058 23.0914 36.128 23.6876 35.7723 24.0432C35.4167 24.378 34.946 24.5453 34.3603 24.5453H25.9507Z" fill="url(#paint1_linear_905_229)"/>
<path d="M60.0586 9.82859C59.9122 9.59848 59.7762 9.28469 59.6507 8.88722C59.5252 8.48976 59.4624 8.07137 59.4624 7.63207C59.4624 6.81621 59.6403 6.23047 59.9959 5.87485C60.3724 5.51922 60.8536 5.3414 61.4393 5.3414H75.1205C75.267 5.57152 75.4029 5.88531 75.5284 6.28277C75.654 6.68024 75.7167 7.09862 75.7167 7.53793C75.7167 8.35378 75.5285 8.93952 75.1519 9.29515C74.7963 9.65078 74.3256 9.82859 73.7398 9.82859H70.2568V24.3257C70.0267 24.3884 69.6606 24.4512 69.1585 24.5139C68.6774 24.5767 68.1962 24.6081 67.7151 24.6081C67.2339 24.6081 66.8051 24.5662 66.4286 24.4825C66.0729 24.4198 65.7696 24.2943 65.5186 24.106C65.2675 23.9177 65.0793 23.6562 64.9538 23.3215C64.8282 22.9868 64.7655 22.5475 64.7655 22.0036V9.82859H60.0586Z" fill="url(#paint2_linear_905_229)"/>
<path d="M78.4288 9.82859C78.2823 9.59848 78.1464 9.28469 78.0209 8.88722C77.8953 8.48976 77.8326 8.07137 77.8326 7.63207C77.8326 6.81621 78.0104 6.23047 78.366 5.87485C78.7426 5.51922 79.2237 5.3414 79.8094 5.3414H93.4907C93.6371 5.57152 93.7731 5.88531 93.8986 6.28277C94.0241 6.68024 94.0869 7.09862 94.0869 7.53793C94.0869 8.35378 93.8986 8.93952 93.522 9.29515C93.1664 9.65078 92.6957 9.82859 92.11 9.82859H88.6269V24.3257C88.3968 24.3884 88.0307 24.4512 87.5287 24.5139C87.0475 24.5767 86.5664 24.6081 86.0852 24.6081C85.6041 24.6081 85.1752 24.5662 84.7987 24.4825C84.4431 24.4198 84.1397 24.2943 83.8887 24.106C83.6377 23.9177 83.4494 23.6562 83.3239 23.3215C83.1984 22.9868 83.1356 22.5475 83.1356 22.0036V9.82859H78.4288Z" fill="url(#paint3_linear_905_229)"/>
<path d="M12.5288 1.81031C13.5863 1.81031 14.6079 1.882 15.54 2.04332C16.5795 2.20463 17.5116 2.49141 18.3002 2.86781C19.1785 3.28006 19.9134 3.85362 20.469 4.53473C20.6841 3.4593 21.5086 2.58103 22.6378 2.40179L23.8028 2.22255C24.4302 2.13293 25.0754 2.07916 25.6848 2.07916C27.3876 2.07916 28.6781 2.43764 29.646 3.19044C30.8111 4.08663 31.4025 5.52054 31.4025 7.43839V17.5295H35.2024C35.059 16.6871 34.9873 15.7909 34.9873 14.8588C34.9873 12.8335 35.3279 11.0052 35.9731 9.39208C36.6363 7.74309 37.5863 6.34503 38.7692 5.21583C39.9522 4.08663 41.3503 3.22629 42.9276 2.65273C44.4511 2.09709 46.1538 1.81031 47.8566 1.81031C49.5594 1.81031 51.2621 2.09709 52.8036 2.65273C54.363 3.22629 55.761 4.08663 56.944 5.17999C57.1591 4.66019 57.4458 4.17625 57.8222 3.78193C58.4317 3.15459 59.5071 2.41972 61.1919 2.41972H75.3517C75.9791 2.41972 76.5885 2.65273 77.0545 3.04705C77.6639 2.68857 78.4346 2.41972 79.4384 2.41972H93.5982C94.5302 2.41972 95.3906 2.88574 95.8745 3.67438C96.1075 4.05078 96.3047 4.49888 96.466 4.98282C97.5952 3.97909 98.9036 3.17252 100.373 2.6348C101.897 2.07916 103.6 1.79238 105.302 1.79238C107.005 1.79238 108.708 2.07916 110.249 2.6348C111.827 3.20836 113.225 4.06871 114.408 5.17999C115.609 6.30919 116.559 7.72517 117.222 9.35624C117.885 10.9694 118.208 12.7976 118.208 14.823C118.208 16.8484 117.885 18.6766 117.24 20.2898C116.577 21.9388 115.645 23.3547 114.444 24.5019C113.261 25.6311 111.863 26.4914 110.267 27.065C108.726 27.6206 107.059 27.9074 105.285 27.9074C103.51 27.9074 101.843 27.6206 100.302 27.065C98.6886 26.4914 97.2905 25.6131 96.1075 24.466C94.9425 23.3189 94.0105 21.9208 93.3652 20.2898C92.7199 18.6945 92.3973 16.8484 92.3973 14.8409C92.3973 13.9447 92.469 13.0844 92.6124 12.2599C92.469 12.2599 92.3435 12.2957 92.1822 12.2957H91.2323V24.6094C91.2323 25.8282 90.4078 26.9037 89.2427 27.2084C88.938 27.298 88.4541 27.3876 87.8088 27.4772C87.1994 27.5489 86.5721 27.6027 85.9447 27.6027C84.1165 27.6027 82.7543 27.1904 81.8043 26.348C80.7647 25.4339 80.227 24.0358 80.227 22.2255V12.2957H78.0403C77.413 12.2957 76.8036 12.0627 76.3376 11.6684C75.6385 12.0627 74.832 12.2957 73.9537 12.2957H73.0037V24.6094C73.0037 25.8282 72.1792 26.9037 71.0142 27.2084C70.7095 27.298 70.2255 27.3876 69.5803 27.4772C68.9709 27.5489 68.3435 27.6027 67.7162 27.6027C65.888 27.6027 64.5258 27.1904 63.5758 26.348C62.5362 25.4339 61.9985 24.0358 61.9985 22.2255V12.2957H60.6004C60.7259 13.1023 60.7976 13.9447 60.7976 14.8409C60.7976 16.8484 60.475 18.6945 59.8297 20.3077C59.1665 21.9567 58.2345 23.3727 57.0336 24.5198C55.8506 25.649 54.4526 26.5093 52.8574 27.0829C51.3159 27.6385 49.649 27.9253 47.8745 27.9253C46.1001 27.9253 44.4332 27.6385 42.8917 27.0829C41.404 26.5452 40.0777 25.7386 38.9664 24.699C38.7692 25.165 38.5362 25.5773 38.2136 25.9537C37.6042 26.6348 36.5287 27.4414 34.7722 27.4414H26.0612C23.9821 27.4414 22.6916 26.581 21.9567 25.8462C21.5803 25.4698 21.186 24.95 20.8813 24.2509C20.469 24.7528 20.003 25.2188 19.4473 25.649C18.4615 26.4018 17.2427 26.9754 15.8626 27.3697C14.5721 27.7461 13.0844 27.9253 11.4712 27.9253C10.3241 27.9253 9.23077 27.8357 8.20911 27.6385C7.11576 27.4234 6.14787 27.1187 5.30545 26.7065C4.30172 26.2046 3.47722 25.5594 2.86781 24.7707C2.15086 23.8566 1.79238 22.7274 1.79238 21.5444C1.79238 20.3615 2.20463 19.1606 2.95743 18.2285C3.4593 17.637 3.99701 17.1352 4.60642 16.7588C4.57057 16.7409 4.55265 16.705 4.5168 16.6871C3.65646 15.9701 2.99328 15.0919 2.50934 14.0881C2.02539 13.0665 1.77446 11.8656 1.77446 10.5392C1.77446 7.88648 2.86781 5.62808 4.92905 4.03286C6.81105 2.56311 9.35624 1.82823 12.5108 1.82823M12.5108 0.0358476C8.96191 0.0358476 6.04033 0.914115 3.8357 2.6348C1.34429 4.57057 0.0179238 7.31292 0.0179238 10.5392C0.0179238 12.1524 0.322629 13.6042 0.914115 14.8588C1.21882 15.4862 1.5773 16.0777 1.98954 16.6154C1.84615 16.7588 1.72069 16.9201 1.5773 17.0635C0.537715 18.3181 0 19.8596 0 21.5265C0 23.1934 0.501867 24.6094 1.45183 25.8462C2.22255 26.8499 3.26214 27.6923 4.5168 28.3017C5.50261 28.7857 6.63181 29.1621 7.88648 29.3951C8.99776 29.6102 10.2166 29.7177 11.4892 29.7177C13.2816 29.7177 14.9126 29.5026 16.3645 29.0904C17.9597 28.6423 19.3577 27.9612 20.5407 27.065C20.5586 27.047 20.5945 27.0291 20.6124 27.0112C20.6482 27.047 20.6662 27.065 20.702 27.1008C21.6699 28.0687 23.3906 29.2158 26.0612 29.2158H34.7722C37.0306 29.2158 38.5183 28.2121 39.3786 27.298C40.2748 27.8895 41.2427 28.3734 42.2644 28.7498C44.003 29.3771 45.885 29.6998 47.8566 29.6998C49.8282 29.6998 51.7102 29.3771 53.4488 28.7498C55.2771 28.0866 56.8902 27.1008 58.2524 25.7924C59.0052 25.0754 59.6684 24.2689 60.242 23.3547C60.457 25.165 61.1561 26.6169 62.357 27.6744C63.6654 28.8215 65.404 29.3592 67.6804 29.3592C68.3973 29.3592 69.0963 29.3054 69.7774 29.2338C70.4765 29.1441 71.0321 29.0366 71.4444 28.929C73.398 28.4093 74.7603 26.6348 74.7603 24.6094V14.0344C75.2621 13.9806 75.7461 13.8551 76.1942 13.6938C76.7677 13.9627 77.3951 14.0881 78.0224 14.0881H78.4167V22.2255C78.4167 24.5736 79.1516 26.4197 80.6034 27.6923C81.9119 28.8394 83.6505 29.3771 85.9268 29.3771C86.6438 29.3771 87.3428 29.3234 88.0239 29.2517C88.7229 29.1621 89.2786 29.0545 89.6908 28.947C91.6445 28.4272 93.0067 26.6527 93.0067 24.6273V23.5161C93.5444 24.3406 94.1538 25.0934 94.8529 25.7745C96.2151 27.1008 97.8461 28.1225 99.6923 28.7857C101.431 29.413 103.313 29.7356 105.285 29.7356C107.256 29.7356 109.138 29.413 110.877 28.7857C112.705 28.1225 114.318 27.1367 115.68 25.8282C117.06 24.5019 118.154 22.8708 118.907 20.9709C119.624 19.1426 120 17.0814 120 14.8588C120 12.6363 119.624 10.5392 118.871 8.71098C118.1 6.82898 117.007 5.21583 115.627 3.90739C114.264 2.61688 112.651 1.63107 110.841 0.967886C109.21 0.340553 107.292 0.0179238 105.356 0.0179238C103.42 0.0179238 101.503 0.340553 99.7998 0.967886C98.8499 1.30844 97.9537 1.75653 97.1113 2.29425C96.2688 1.25467 94.9963 0.645258 93.634 0.645258H79.4742C78.6677 0.645258 77.9149 0.770724 77.1979 1.03958C76.6243 0.788648 75.997 0.645258 75.3876 0.645258H61.2278C58.9156 0.645258 57.4279 1.68484 56.5676 2.56311C55.6176 1.91785 54.578 1.38013 53.4668 0.967886C51.7461 0.340553 49.8282 0.0179238 47.8925 0.0179238C45.9567 0.0179238 44.0388 0.340553 42.3361 0.967886C40.5258 1.63107 38.9126 2.61688 37.5504 3.92532C36.1882 5.23376 35.0948 6.8469 34.3241 8.71098C33.5713 10.5392 33.1949 12.6004 33.1949 14.8588C33.1949 15.1456 33.1949 15.4324 33.2128 15.7371H33.177V7.43839C33.177 4.31964 31.8506 2.6348 30.7214 1.75653C29.4309 0.752801 27.7819 0.268857 25.6669 0.268857C24.95 0.268857 24.233 0.322629 23.5161 0.430172L22.351 0.60941C21.4548 0.752801 20.6482 1.16505 20.0209 1.75653C19.7162 1.55937 19.3936 1.38013 19.053 1.21882C18.1031 0.770724 17.0097 0.448096 15.8088 0.250934C14.7872 0.0896191 13.6759 0 12.5108 0V0.0358476Z" fill="white"/>
<path d="M37.9988 14.912C37.9988 13.2803 38.2498 11.8369 38.7519 10.5817C39.2749 9.32654 39.9757 8.28058 40.8543 7.44381C41.7538 6.58612 42.7998 5.93762 43.9922 5.49831C45.2055 5.05901 46.5129 4.83936 47.9145 4.83936C49.3161 4.83936 50.6131 5.05901 51.8055 5.49831C53.0188 5.93762 54.0752 6.58612 54.9748 7.44381C55.8743 8.28058 56.5751 9.32654 57.0772 10.5817C57.6001 11.8369 57.8616 13.2803 57.8616 14.912C57.8616 16.5437 57.6106 17.9976 57.1085 19.2737C56.6065 20.5288 55.9057 21.5852 55.0062 22.4429C54.1275 23.2797 53.0816 23.9177 51.8683 24.357C50.6549 24.7963 49.337 25.016 47.9145 25.016C46.492 25.016 45.1741 24.7963 43.9608 24.357C42.7475 23.8968 41.7015 23.2379 40.8229 22.3802C39.9443 21.5225 39.2539 20.4661 38.7519 19.2109C38.2498 17.9557 37.9988 16.5228 37.9988 14.912Z" fill="url(#paint4_radial_905_229)"/>
<path d="M57.246 15.1211C57.246 12.5974 56.2617 10.3085 54.6647 8.62793C56.3338 15.271 49.075 19.4781 44.6609 18.1993C42.4649 17.5627 40.9067 18.2587 39.8752 19.1697C41.3531 22.2904 44.4834 24.4435 48.1073 24.4435C53.1536 24.4435 57.2432 20.2703 57.2432 15.1211H57.246Z" fill="#7D2EFF"/>
<path d="M55.5132 8.74683C56.381 10.2067 56.8801 11.9213 56.8801 13.7546C56.8801 19.0991 52.6351 23.4307 47.3975 23.4307C44.5556 23.4307 42.0047 22.1547 40.2662 20.1317C41.9271 22.9299 44.941 24.8 48.3818 24.8C53.6194 24.8 57.8644 20.4684 57.8644 15.124C57.8644 12.6823 56.9771 10.45 55.5132 8.74683Z" fill="#6A15F3"/>
<path opacity="0.5" d="M40.6654 17.9561C40.6654 12.4928 45.0046 8.06501 50.3586 8.06501C52.6794 8.06501 54.8088 8.89681 56.4779 10.286C54.8919 7.03516 51.6008 4.80005 47.7995 4.80005C42.4454 4.80005 38.1062 9.22783 38.1062 14.6883C38.1062 17.7807 39.4981 20.542 41.6774 22.3584C41.0314 21.0315 40.6654 19.5376 40.6654 17.9561Z" fill="url(#paint5_linear_905_229)" fill-opacity="0.6"/>
<path opacity="0.5" d="M53.3062 8.85729C53.3062 10.9113 50.9495 12.5749 48.0409 12.5749C45.1324 12.5749 42.7756 10.9113 42.7756 8.85729C42.7756 6.80325 45.1324 5.13965 48.0409 5.13965C50.9495 5.13965 53.3062 6.80325 53.3062 8.85729Z" fill="url(#paint6_linear_905_229)" fill-opacity="0.3"/>
<path d="M43.3493 5.92617C37.9205 8.76108 37.8983 14.3574 37.9787 15.8682H39.0323C40.0582 10.1304 45.2542 8.37347 45.2542 8.37347L43.3493 5.92334V5.92617Z" fill="url(#paint7_linear_905_229)" fill-opacity="0.4"/>
<path d="M41.2 14.7894C41.2 13.6896 41.3668 12.7166 41.7004 11.8706C42.048 11.0246 42.5137 10.3195 43.0976 9.75552C43.6954 9.1774 44.3905 8.74028 45.1829 8.44417C45.9892 8.14806 46.8581 8 47.7895 8C48.721 8 49.5829 8.14806 50.3753 8.44417C51.1816 8.74028 51.8837 9.1774 52.4815 9.75552C53.0793 10.3195 53.545 11.0246 53.8786 11.8706C54.2262 12.7166 54.4 13.6896 54.4 14.7894C54.4 15.8893 54.2331 16.8693 53.8995 17.7294C53.5658 18.5754 53.1001 19.2875 52.5023 19.8656C51.9184 20.4297 51.2233 20.8597 50.417 21.1558C49.6107 21.4519 48.7349 21.6 47.7895 21.6C46.8442 21.6 45.9684 21.4519 45.162 21.1558C44.3557 20.8456 43.6606 20.4015 43.0767 19.8233C42.4928 19.2452 42.0341 18.5331 41.7004 17.6871C41.3668 16.8411 41.2 15.8752 41.2 14.7894Z" fill="white"/>
<path d="M50.8303 11.4406C50.8303 11.6369 50.7817 11.8286 50.6843 12.0156C50.5967 12.1933 50.4896 12.3288 50.3631 12.4223C50.1002 12.3101 49.8228 12.226 49.5308 12.1699C49.2485 12.1044 48.9856 12.0717 48.7423 12.0717C48.1582 12.0717 47.7055 12.2213 47.3843 12.5205C47.0728 12.8104 46.8635 13.2311 46.7564 13.7828C46.9511 13.6519 47.2091 13.535 47.5303 13.4321C47.8516 13.3199 48.1825 13.2638 48.5232 13.2638C49.4188 13.2638 50.1295 13.5116 50.6551 14.0072C51.1905 14.5027 51.4582 15.2133 51.4582 16.1389C51.4582 16.541 51.3852 16.9243 51.2392 17.289C51.0932 17.6536 50.8741 17.9762 50.5821 18.2567C50.2901 18.5278 49.925 18.7476 49.487 18.9159C49.0586 19.0748 48.5573 19.1543 47.983 19.1543C46.8343 19.1543 45.929 18.785 45.267 18.0463C44.6148 17.3077 44.2887 16.2558 44.2887 14.8907C44.2887 14.1147 44.386 13.4321 44.5807 12.8431C44.7852 12.254 45.0675 11.7632 45.4276 11.3705C45.7976 10.9778 46.2356 10.6833 46.7418 10.4869C47.248 10.2906 47.8078 10.1924 48.421 10.1924C49.1998 10.1924 49.7936 10.2952 50.2025 10.5009C50.621 10.7066 50.8303 11.0199 50.8303 11.4406ZM47.9684 15.0871C47.7834 15.0871 47.5839 15.1245 47.3697 15.1993C47.1653 15.2741 46.9998 15.3769 46.8732 15.5078V15.8584C46.8732 16.3633 46.9803 16.7233 47.1945 16.9384C47.4184 17.1534 47.6861 17.2609 47.9976 17.2609C48.3188 17.2609 48.5573 17.1581 48.7131 16.9524C48.8786 16.7467 48.9613 16.4802 48.9613 16.153C48.9613 15.8257 48.8737 15.5686 48.6985 15.3816C48.533 15.1852 48.2896 15.0871 47.9684 15.0871Z" fill="#12033D"/>
<path d="M95.5336 14.912C95.5336 13.2803 95.7846 11.8369 96.2867 10.5817C96.8096 9.32654 97.5104 8.28058 98.3891 7.44381C99.2886 6.58612 100.335 5.93762 101.527 5.49831C102.74 5.05901 104.048 4.83936 105.449 4.83936C106.851 4.83936 108.148 5.05901 109.34 5.49831C110.554 5.93762 111.61 6.58612 112.51 7.44381C113.409 8.28058 114.11 9.32654 114.612 10.5817C115.135 11.8369 115.396 13.2803 115.396 14.912C115.396 16.5437 115.145 17.9976 114.643 19.2737C114.141 20.5288 113.44 21.5852 112.541 22.4429C111.662 23.2797 110.616 23.9177 109.403 24.357C108.19 24.7963 106.872 25.016 105.449 25.016C104.027 25.016 102.709 24.7963 101.496 24.357C100.282 23.8968 99.2363 23.2379 98.3577 22.3802C97.4791 21.5225 96.7887 20.4661 96.2867 19.2109C95.7846 17.9557 95.5336 16.5228 95.5336 14.912Z" fill="url(#paint8_radial_905_229)"/>
<path d="M96.2183 15.1211C96.2183 12.5974 97.2026 10.3085 98.7997 8.62793C97.1305 15.271 104.389 19.4781 108.803 18.1993C110.999 17.5627 112.558 18.2587 113.589 19.1697C112.111 22.2904 108.981 24.4435 105.357 24.4435C100.311 24.4435 96.2211 20.2703 96.2211 15.1211H96.2183Z" fill="#3179FE"/>
<path d="M97.9511 8.74683C97.0832 10.2067 96.5842 11.9213 96.5842 13.7546C96.5842 19.0991 100.829 23.4307 106.067 23.4307C108.909 23.4307 111.46 22.1547 113.198 20.1317C111.537 22.9299 108.523 24.8 105.082 24.8C99.8448 24.8 95.5999 20.4684 95.5999 15.124C95.5999 12.6823 96.4871 10.45 97.9511 8.74683Z" fill="#0A5CF3"/>
<path opacity="0.5" d="M112.799 17.9561C112.799 12.4928 108.46 8.06501 103.106 8.06501C100.785 8.06501 98.6555 8.89681 96.9863 10.286C98.5723 7.03516 101.863 4.80005 105.665 4.80005C111.019 4.80005 115.358 9.22783 115.358 14.6883C115.358 17.7807 113.966 20.542 111.787 22.3584C112.433 21.0315 112.799 19.5376 112.799 17.9561Z" fill="url(#paint9_linear_905_229)" fill-opacity="0.6"/>
<path opacity="0.5" d="M100.158 8.85729C100.158 10.9113 102.515 12.5749 105.423 12.5749C108.332 12.5749 110.689 10.9113 110.689 8.85729C110.689 6.80325 108.332 5.13965 105.423 5.13965C102.515 5.13965 100.158 6.80325 100.158 8.85729Z" fill="url(#paint10_linear_905_229)" fill-opacity="0.3"/>
<path d="M110.115 5.92617C115.544 8.76108 115.566 14.3574 115.486 15.8682H114.432C113.406 10.1304 108.21 8.37347 108.21 8.37347L110.115 5.92334V5.92617Z" fill="url(#paint11_linear_905_229)" fill-opacity="0.4"/>
<path d="M112.4 14.8107C112.4 15.9105 112.233 16.8835 111.9 17.7295C111.552 18.5755 111.086 19.2806 110.502 19.8446C109.905 20.4227 109.21 20.8598 108.417 21.1559C107.611 21.452 106.742 21.6001 105.81 21.6001C104.879 21.6001 104.017 21.452 103.225 21.1559C102.418 20.8598 101.716 20.4227 101.119 19.8446C100.521 19.2806 100.055 18.5755 99.7214 17.7295C99.3738 16.8835 99.2 15.9105 99.2 14.8107C99.2 13.7108 99.3668 12.7308 99.7005 11.8707C100.034 11.0247 100.5 10.3126 101.098 9.73447C101.682 9.17045 102.377 8.74038 103.183 8.44427C103.989 8.14815 104.865 8.0001 105.81 8.0001C106.756 8.0001 107.632 8.14815 108.438 8.44427C109.244 8.75448 109.939 9.19864 110.523 9.77677C111.107 10.3549 111.566 11.067 111.9 11.913C112.233 12.759 112.4 13.7249 112.4 14.8107Z" fill="white"/>
<path d="M102.77 18.1595C102.77 17.9632 102.818 17.7715 102.916 17.5845C103.003 17.4068 103.11 17.2713 103.237 17.1778C103.5 17.29 103.777 17.3741 104.069 17.4302C104.352 17.4957 104.614 17.5284 104.858 17.5284C105.442 17.5284 105.894 17.3788 106.216 17.0796C106.527 16.7897 106.736 16.369 106.844 15.8173C106.649 15.9482 106.391 16.0651 106.07 16.168C105.748 16.2802 105.417 16.3363 105.077 16.3363C104.181 16.3363 103.471 16.0885 102.945 15.5929C102.409 15.0974 102.142 14.3868 102.142 13.4612C102.142 13.0591 102.215 12.6758 102.361 12.3111C102.507 11.9465 102.726 11.6239 103.018 11.3434C103.31 11.0723 103.675 10.8525 104.113 10.6842C104.541 10.5253 105.043 10.4458 105.617 10.4458C106.766 10.4458 107.671 10.8151 108.333 11.5538C108.985 12.2924 109.311 13.3443 109.311 14.7094C109.311 15.4854 109.214 16.168 109.019 16.757C108.815 17.3461 108.533 17.8369 108.172 18.2296C107.802 18.6223 107.364 18.9168 106.858 19.1132C106.352 19.3095 105.792 19.4077 105.179 19.4077C104.4 19.4077 103.806 19.3049 103.398 19.0992C102.979 18.8935 102.77 18.5802 102.77 18.1595ZM105.632 14.513C105.817 14.513 106.016 14.4756 106.23 14.4008C106.435 14.326 106.6 14.2232 106.727 14.0923L106.727 13.7417C106.727 13.2368 106.62 12.8768 106.406 12.6617C106.182 12.4467 105.914 12.3392 105.602 12.3392C105.281 12.3392 105.043 12.442 104.887 12.6477C104.721 12.8534 104.639 13.1199 104.639 13.4471C104.639 13.7744 104.726 14.0315 104.902 14.2185C105.067 14.4149 105.31 14.513 105.632 14.513Z" fill="#12033D"/>
<defs>
<linearGradient id="paint0_linear_905_229" x1="5.37714" y1="14.339" x2="99.4772" y2="14.339" gradientUnits="userSpaceOnUse">
<stop stop-color="#7D2DFF"/>
<stop offset="1" stop-color="#1F6EFF"/>
</linearGradient>
<linearGradient id="paint1_linear_905_229" x1="5.37714" y1="14.339" x2="99.4772" y2="14.339" gradientUnits="userSpaceOnUse">
<stop stop-color="#7D2DFF"/>
<stop offset="1" stop-color="#1F6EFF"/>
</linearGradient>
<linearGradient id="paint2_linear_905_229" x1="5.37714" y1="14.339" x2="99.4772" y2="14.339" gradientUnits="userSpaceOnUse">
<stop stop-color="#7D2DFF"/>
<stop offset="1" stop-color="#1F6EFF"/>
</linearGradient>
<linearGradient id="paint3_linear_905_229" x1="5.37714" y1="14.339" x2="99.4772" y2="14.339" gradientUnits="userSpaceOnUse">
<stop stop-color="#7D2DFF"/>
<stop offset="1" stop-color="#1F6EFF"/>
</linearGradient>
<radialGradient id="paint4_radial_905_229" cx="0" cy="0" r="1" gradientUnits="userSpaceOnUse" gradientTransform="translate(48 14.4) rotate(177.709) scale(10.008 9.85235)">
<stop stop-color="#D4B9FF"/>
<stop offset="1" stop-color="#7D2DFF"/>
</radialGradient>
<linearGradient id="paint5_linear_905_229" x1="39.3123" y1="17.1158" x2="52.0421" y2="6.52223" gradientUnits="userSpaceOnUse">
<stop stop-color="white" stop-opacity="0.3"/>
<stop offset="1" stop-color="white"/>
</linearGradient>
<linearGradient id="paint6_linear_905_229" x1="48.0409" y1="12.6089" x2="48.0409" y2="5.19445" gradientUnits="userSpaceOnUse">
<stop stop-color="white"/>
<stop offset="0.86" stop-color="white"/>
<stop offset="1" stop-color="white"/>
</linearGradient>
<linearGradient id="paint7_linear_905_229" x1="38.3585" y1="15.97" x2="44.033" y2="6.40492" gradientUnits="userSpaceOnUse">
<stop stop-color="white" stop-opacity="0.2"/>
<stop offset="1" stop-color="white"/>
</linearGradient>
<radialGradient id="paint8_radial_905_229" cx="0" cy="0" r="1" gradientUnits="userSpaceOnUse" gradientTransform="translate(105.465 14.9277) rotate(90) scale(10.0883 9.93143)">
<stop stop-color="#AECAFE"/>
<stop offset="1" stop-color="#1F6EFF"/>
</radialGradient>
<linearGradient id="paint9_linear_905_229" x1="114.152" y1="17.1158" x2="101.422" y2="6.52223" gradientUnits="userSpaceOnUse">
<stop stop-color="white" stop-opacity="0.3"/>
<stop offset="1" stop-color="white"/>
</linearGradient>
<linearGradient id="paint10_linear_905_229" x1="105.423" y1="12.6089" x2="105.423" y2="5.19445" gradientUnits="userSpaceOnUse">
<stop stop-color="white"/>
<stop offset="0.86" stop-color="white"/>
<stop offset="1" stop-color="white"/>
</linearGradient>
<linearGradient id="paint11_linear_905_229" x1="115.106" y1="15.97" x2="109.431" y2="6.40492" gradientUnits="userSpaceOnUse">
<stop stop-color="white" stop-opacity="0.2"/>
<stop offset="1" stop-color="white"/>
</linearGradient>
</defs>
</svg>
