<svg width="16" height="16" viewBox="0 0 16 16" fill="none" xmlns="http://www.w3.org/2000/svg">
<path d="M5.33333 0H2.13333C0.956771 0 0 0.956771 0 2.13333V5.33333C0 6.5099 0.956771 7.46667 2.13333 7.46667H5.33333C6.5099 7.46667 7.46667 6.5099 7.46667 5.33333V2.13333C7.46667 0.956771 6.5099 0 5.33333 0Z" fill="#9098AE"/>
<path d="M5.33333 8.53345H2.13333C0.956771 8.53345 0 9.49022 0 10.6668V13.8668C0 15.0433 0.956771 16.0001 2.13333 16.0001H5.33333C6.5099 16.0001 7.46667 15.0433 7.46667 13.8668V10.6668C7.46667 9.49022 6.5099 8.53345 5.33333 8.53345Z" fill="#555C70"/>
<path d="M13.8668 0H10.6668C9.49022 0 8.53345 0.956771 8.53345 2.13333V5.33333C8.53345 6.5099 9.49022 7.46667 10.6668 7.46667H13.8668C15.0433 7.46667 16.0001 6.5099 16.0001 5.33333V2.13333C16.0001 0.956771 15.0433 0 13.8668 0Z" fill="#555C70"/>
<path d="M14.4001 11.7334H12.8001V10.1334C12.8001 9.83864 12.5616 9.6001 12.2668 9.6001C11.972 9.6001 11.7334 9.83864 11.7334 10.1334V11.7334H10.1334C9.83864 11.7334 9.6001 11.972 9.6001 12.2668C9.6001 12.5616 9.83864 12.8001 10.1334 12.8001H11.7334V14.4001C11.7334 14.6949 11.972 14.9334 12.2668 14.9334C12.5616 14.9334 12.8001 14.6949 12.8001 14.4001V12.8001H14.4001C14.6949 12.8001 14.9334 12.5616 14.9334 12.2668C14.9334 11.972 14.6949 11.7334 14.4001 11.7334Z" fill="#9098AE"/>
</svg>
