<svg width="30" height="30" viewBox="0 0 30 30" fill="none" xmlns="http://www.w3.org/2000/svg">
<rect x="0.5" y="0.5" width="29" height="29" rx="5.5" fill="#311C6D" stroke="#412985"/>
<path d="M14.4167 6H15.5833V8.33333H14.4167V6Z" fill="white" fill-opacity="0.5"/>
<path d="M13.25 20V21.75C13.25 22.715 14.035 23.5 15 23.5C15.965 23.5 16.75 22.715 16.75 21.75V20H13.25Z" fill="white" fill-opacity="0.5"/>
<path d="M21.2104 18.3856L20.6978 17.8729C20.4676 17.6428 20.25 17.1172 20.25 16.7917V12.4167C20.25 9.52195 17.895 7.16669 15 7.16669C12.105 7.16669 9.75 9.52195 9.75 12.4167V16.7917C9.75 17.1172 9.53239 17.6428 9.30225 17.8729L8.78955 18.3856C8.33952 18.8356 8 19.6551 8 20.2917V21.1667H22V20.2917C22 19.6551 21.6605 18.8356 21.2104 18.3856Z" fill="white"/>
</svg>
